<svg width="24" height="25" viewBox="0 0 24 25" fill="none" xmlns="http://www.w3.org/2000/svg">
<path d="M5.31885 15.0257L4.48345 18.2229L1.43009 18.2891C0.517588 16.554 0 14.5688 0 12.4593C0 10.4193 0.483932 8.49562 1.34174 6.80176H1.34239L4.06074 7.31267L5.25154 10.0827C5.0023 10.8276 4.86646 11.6272 4.86646 12.4593C4.86656 13.3623 5.02612 14.2275 5.31885 15.0257Z" fill="white"/>
<path d="M23.7902 10.1604C23.928 10.9046 23.9999 11.6732 23.9999 12.4587C23.9999 13.3395 23.9095 14.1987 23.7375 15.0274C23.1533 17.8476 21.6269 20.3102 19.5124 22.0528L19.5118 22.0522L16.0878 21.8731L15.6032 18.7717C17.0063 17.9281 18.1028 16.6079 18.6804 15.0274H12.2637V10.1604H18.774H23.7902Z" fill="white"/>
<path d="M19.5118 22.0517L19.5125 22.0524C17.456 23.7467 14.8437 24.7605 12 24.7605C7.43013 24.7605 3.45699 22.1423 1.43018 18.2892L5.31894 15.0261C6.33233 17.7985 8.94132 19.772 12 19.772C13.3147 19.772 14.5464 19.4077 15.6032 18.7717L19.5118 22.0517Z" fill="white"/>
<path d="M19.6595 2.98949L15.7721 6.25234C14.6783 5.55139 13.3853 5.14646 12 5.14646C8.8721 5.14646 6.2143 7.21083 5.25167 10.083L1.34245 6.80192H1.3418C3.33895 2.85431 7.36221 0.157227 12 0.157227C14.9116 0.157227 17.5813 1.22053 19.6595 2.98949Z" fill="white"/>
</svg>
