<svg width="20" height="22" viewBox="0 0 20 22" fill="none" xmlns="http://www.w3.org/2000/svg">
<path d="M4.47668 21.3939H0.330283V7.11061H4.47668V21.3939ZM2.40125 5.16224C1.07565 5.16224 0 3.98748 0 2.56918C0 1.15088 1.07565 0 2.40125 0C3.72685 0 4.8025 1.15088 4.8025 2.56918C4.8025 3.98748 3.72685 5.16224 2.40125 5.16224ZM19.9955 21.3939H15.8581V14.4409C15.8581 12.7838 15.8268 10.6588 13.7023 10.6588C11.5465 10.6588 11.2162 12.4591 11.2162 14.3215V21.3939H7.07431V7.11061H11.0511V9.05899H11.1091C11.6626 7.93676 13.015 6.75246 15.0324 6.75246C19.2278 6.75246 20 9.70845 20 13.5479V21.3939H19.9955Z" fill="white"/>
</svg>
