<svg width="6" height="9" viewBox="0 0 6 9" fill="none" xmlns="http://www.w3.org/2000/svg">
<path fill-rule="evenodd" clip-rule="evenodd" d="M3 0C1.34143 0 0 1.4085 0 3.15C0 5.5125 3 9 3 9C3 9 6 5.5125 6 3.15C6 1.4085 4.65857 0 3 0ZM0.857143 3.15C0.857143 1.908 1.81714 0.9 3 0.9C4.18286 0.9 5.14286 1.908 5.14286 3.15C5.14286 4.446 3.90857 6.3855 3 7.596C2.10857 6.3945 0.857143 4.4325 0.857143 3.15ZM1.92857 3.15C1.92857 2.52868 2.40827 2.025 3 2.025C3.38278 2.025 3.73649 2.23942 3.92788 2.5875C4.11928 2.93558 4.11928 3.36442 3.92788 3.7125C3.73649 4.06058 3.38278 4.275 3 4.275C2.40827 4.275 1.92857 3.77132 1.92857 3.15Z" fill="#111B6E"/>
</svg>
