<svg width="24" height="21" viewBox="0 0 24 21" fill="none" xmlns="http://www.w3.org/2000/svg">
<path d="M21.533 5.44782C21.5482 5.66637 21.5482 5.88496 21.5482 6.10352C21.5482 12.7696 16.599 20.4505 7.5533 20.4505C4.76648 20.4505 2.17767 19.623 0 18.1868C0.395953 18.2336 0.776625 18.2493 1.18781 18.2493C3.48727 18.2493 5.60405 17.4531 7.29441 16.0949C5.13197 16.048 3.31978 14.5962 2.69541 12.5979C3 12.6447 3.30455 12.6759 3.62438 12.6759C4.06598 12.6759 4.50764 12.6135 4.91878 12.5042C2.66498 12.0358 0.974578 10.0064 0.974578 7.55538V7.49295C1.62938 7.86763 2.39086 8.1018 3.19791 8.13299C1.87303 7.2275 1.00505 5.68198 1.00505 3.93349C1.00505 2.99682 1.24866 2.13818 1.67508 1.38883C4.09641 4.44868 7.73602 6.44691 11.8172 6.66551C11.7411 6.29083 11.6954 5.90058 11.6954 5.51029C11.6954 2.73141 13.8883 0.467773 16.6141 0.467773C18.0304 0.467773 19.3095 1.07662 20.208 2.06014C21.3197 1.84159 22.3857 1.42006 23.3299 0.842452C22.9643 2.01334 22.1877 2.99686 21.1674 3.62128C22.1573 3.51205 23.1167 3.23098 23.9999 2.84074C23.33 3.83983 22.4924 4.72965 21.533 5.44782Z" fill="white"/>
</svg>
