<svg width="11" height="14" viewBox="0 0 11 14" fill="none" xmlns="http://www.w3.org/2000/svg">
<path d="M5.49964 5.3449C7.00316 5.3449 8.222 4.14841 8.222 2.67245C8.222 1.1965 7.00316 0 5.49964 0C3.99612 0 2.77728 1.1965 2.77728 2.67245C2.77728 4.14841 3.99612 5.3449 5.49964 5.3449Z" fill="white"/>
<path d="M10.0479 12.9236H10.0444C8.99776 13.5636 7.36274 13.9831 5.52205 13.9977H5.47737C3.63668 13.9831 2.00166 13.5636 0.954998 12.9236H0.95156C-0.547112 11.9833 0.154102 9.94464 0.22915 9.74781V9.73937V9.73262L0.672564 8.52856C1.03406 7.54776 1.99364 6.81835 3.17092 6.62995C3.91546 6.51082 4.66859 6.45102 5.42294 6.45111H5.57075C6.3251 6.45102 7.07823 6.51082 7.82277 6.62995C9.00005 6.81835 9.95963 7.54776 10.3211 8.52856L10.7703 9.73206L10.7731 9.73881C10.7731 9.73881 10.7731 9.74387 10.776 9.74725C10.8453 9.94464 11.5465 11.9833 10.0479 12.9236Z" fill="white"/>
</svg>
