<svg width="27" height="19" viewBox="0 0 27 19" fill="none" xmlns="http://www.w3.org/2000/svg">
<path d="M25.7651 3.1199C25.4706 1.98342 24.6032 1.08837 23.5017 0.784616C21.5053 0.232666 13.5 0.232666 13.5 0.232666C13.5 0.232666 5.49466 0.232666 3.4982 0.784616C2.39678 1.08841 1.52931 1.98342 1.23489 3.1199C0.699951 5.17984 0.699951 9.47771 0.699951 9.47771C0.699951 9.47771 0.699951 13.7756 1.23489 15.8355C1.52931 16.972 2.39678 17.8298 3.4982 18.1335C5.49466 18.6855 13.5 18.6855 13.5 18.6855C13.5 18.6855 21.5053 18.6855 23.5017 18.1335C24.6032 17.8298 25.4706 16.972 25.7651 15.8355C26.3 13.7756 26.3 9.47771 26.3 9.47771C26.3 9.47771 26.3 5.17984 25.7651 3.1199ZM10.8818 13.3798V5.57557L17.5727 9.4778L10.8818 13.3798Z" fill="white"/>
</svg>
