<svg width="34" height="35" viewBox="0 0 34 35" fill="none" xmlns="http://www.w3.org/2000/svg">
<path d="M12.6286 0C15.9779 0 19.19 1.36964 21.5583 3.80761C23.9266 6.24558 25.2571 9.55219 25.2571 13C25.2571 16.22 24.1109 19.18 22.2263 21.46L22.7509 22H24.2857L34 32L31.0857 35L21.3714 25V23.42L20.8469 22.88C18.632 24.82 15.7566 26 12.6286 26C9.27927 26 6.06714 24.6304 3.69882 22.1924C1.33051 19.7544 0 16.4478 0 13C0 9.55219 1.33051 6.24558 3.69882 3.80761C6.06714 1.36964 9.27927 0 12.6286 0ZM12.6286 4C7.77143 4 3.88571 8 3.88571 13C3.88571 18 7.77143 22 12.6286 22C17.4857 22 21.3714 18 21.3714 13C21.3714 8 17.4857 4 12.6286 4Z" fill="white"/>
</svg>
